PathFileType  4	(X/Y/Z) C:\Users\wagnerel85475\Documents\Thesis\opencap-core\Data\3375ffbc-daeb-4a43-b4f7-ac9899cd4c71\MarkerData\PreAugmentation
DataRate	CameraRate	NumFrames	NumMarkers	Units	OrigDataRate	OrigDataStartFrame	OrigNumFrames
60.0	60.0	17	20	m	60.0	371	423
Frame#	Time	Neck			RShoulder			RElbow			RWrist			LShoulder			LElbow			LWrist			midHip			RHip			RKnee			RAnkle			LHip			LKnee			LAnkle			LBigToe			LSmallToe			LHeel			RBigToe			RSmallToe			RHeel			
		X1	Y1	Z1	X2	Y2	Z2	X3	Y3	Z3	X4	Y4	Z4	X5	Y5	Z5	X6	Y6	Z6	X7	Y7	Z7	X8	Y8	Z8	X9	Y9	Z9	X10	Y10	Z10	X11	Y11	Z11	X12	Y12	Z12	X13	Y13	Z13	X14	Y14	Z14	X15	Y15	Z15	X16	Y16	Z16	X17	Y17	Z17	X18	Y18	Z18	X19	Y19	Z19	X20	Y20	Z20	

371	6.1666667	1.1197200	1.3592900	-0.0404300	1.1188300	1.3628900	0.1570900	1.0344700	1.0529400	0.2219500	1.1145800	0.7764300	0.2741200	1.1237100	1.3568900	-0.2249700	1.0675200	1.0477100	-0.3085500	1.1430100	0.7673200	-0.3412600	1.1492500	0.8084200	-0.0372700	1.1534600	0.8170300	0.0815700	1.0500300	0.3134100	0.0869000	0.9780200	-0.2002700	0.1584200	1.1387600	0.8075300	-0.1561700	1.0315700	0.3110200	-0.1568100	1.0203500	-0.1717900	-0.2257500	1.2192700	-0.2053200	-0.3128000	1.1708500	-0.2096800	-0.3454200	0.9817300	-0.2310300	-0.1986300	1.1575200	-0.2404100	0.2744700	1.1245900	-0.2269000	0.2947200	0.9790900	-0.2380400	0.1229800
372	6.1833333	1.1253900	1.3592100	-0.0446300	1.1187500	1.3629100	0.1571000	1.0346800	1.0528000	0.2218500	1.1148300	0.7701000	0.2740500	1.1238800	1.3567600	-0.2250100	1.0671800	1.0475400	-0.3085900	1.1429200	0.7676300	-0.3410200	1.1495700	0.8109600	-0.0372600	1.1543000	0.8134700	0.0811500	1.0502300	0.3069600	0.0869100	0.9783600	-0.2001700	0.1584200	1.1389900	0.8073400	-0.1565500	1.0308900	0.3111900	-0.1569200	1.0203800	-0.1717400	-0.2257500	1.2193900	-0.2054500	-0.3128800	1.1694800	-0.2101300	-0.3455300	0.9818300	-0.2311200	-0.1986400	1.1576000	-0.2405200	0.2744000	1.1158400	-0.2268500	0.2931500	0.9789600	-0.2381500	0.1230200
373	6.2000000	1.1262300	1.3591600	-0.0441300	1.1189700	1.3629800	0.1570800	1.0345800	1.0461700	0.2219300	1.1057600	0.7686000	0.2713500	1.1236700	1.3568700	-0.2249700	1.0677900	1.0441600	-0.3086900	1.1426500	0.7639900	-0.3414100	1.1491700	0.8084100	-0.0373600	1.1537900	0.8130900	0.0812400	1.0505200	0.3096900	0.0863900	0.9694200	-0.2033800	0.1555900	1.1386200	0.8039700	-0.1565000	1.0389600	0.3128600	-0.1534900	1.0203900	-0.1717500	-0.2257400	1.2193500	-0.2055500	-0.3128900	1.1644000	-0.2123000	-0.3488500	0.9900800	-0.2251600	-0.2016500	1.1656200	-0.2373300	0.2769400	1.1249200	-0.2271700	0.2948100	0.9791900	-0.2340700	0.1235700
374	6.2166667	1.1254000	1.3591700	-0.0446300	1.1189100	1.3629500	0.1570900	1.0347500	1.0461200	0.2217900	1.1058000	0.7723800	0.2715400	1.1238000	1.3567100	-0.2250100	1.0670500	1.0473400	-0.3085600	1.1285900	0.7654700	-0.3412200	1.1495900	0.8081700	-0.0370900	1.1540200	0.8108200	0.0813500	1.0511800	0.3062800	0.0859600	0.9696800	-0.2032100	0.1555500	1.1394100	0.8044800	-0.1563700	1.0385100	0.3129200	-0.1535100	1.0207100	-0.1685700	-0.2251100	1.2194300	-0.2056000	-0.3129800	1.1629900	-0.2126100	-0.3489700	0.9824800	-0.2281200	-0.1979400	1.1656200	-0.2374300	0.2768400	1.1245300	-0.2270100	0.2949100	0.9790400	-0.2342000	0.1235500
375	6.2333333	1.1262200	1.3591500	-0.0441300	1.1190400	1.3629500	0.1570400	1.0344400	1.0461400	0.2219200	1.0971900	0.7680800	0.2691400	1.1235900	1.3568300	-0.2249900	1.0673800	1.0474800	-0.3085000	1.1278000	0.7621400	-0.3412800	1.1492200	0.8082600	-0.0373900	1.1535500	0.8104800	0.0814800	1.0511400	0.3062300	0.0858600	0.9693100	-0.2032800	0.1555800	1.1454200	0.8019600	-0.1598500	1.0389800	0.3128800	-0.1535200	1.0207100	-0.1685800	-0.2251000	1.2193000	-0.2056400	-0.3129100	1.1643800	-0.2124200	-0.3488700	0.9824000	-0.2280800	-0.1979300	1.1578300	-0.2404800	0.2745000	1.1248000	-0.2270200	0.2947800	0.9792100	-0.2339600	0.1234800
376	6.2500000	1.1329000	1.3590100	-0.0414300	1.1189400	1.3629000	0.1570800	1.0279100	1.0455500	0.2260700	1.0972300	0.7684900	0.2690600	1.1237500	1.3567100	-0.2250200	1.0670100	1.0442700	-0.3084400	1.1285500	0.7620400	-0.3416000	1.1495900	0.8081800	-0.0371100	1.1539300	0.8107800	0.0813600	1.0511900	0.3062200	0.0859200	0.9696500	-0.2032200	0.1556000	1.1460700	0.8054700	-0.1599500	1.0310900	0.3111000	-0.1568500	1.0207200	-0.1685300	-0.2251000	1.2194600	-0.2056100	-0.3129400	1.1630300	-0.2126800	-0.3489200	0.9902900	-0.2251400	-0.2015900	1.1579100	-0.2406400	0.2743600	1.1246000	-0.2270900	0.2948400	0.9790900	-0.2341100	0.1235100
377	6.2666667	1.1262400	1.3591000	-0.0441500	1.1190200	1.3627800	0.1570500	1.0276800	1.0456300	0.2262200	1.0969100	0.7680900	0.2690900	1.1235400	1.3568000	-0.2250200	1.0673200	1.0440300	-0.3085800	1.1284500	0.7583700	-0.3420300	1.1492500	0.8083800	-0.0374100	1.1537500	0.8130500	0.0812100	1.0506100	0.3098000	0.0863700	0.9694600	-0.2033000	0.1556200	1.1454200	0.8085200	-0.1598700	1.0315500	0.3108300	-0.1568500	1.0207100	-0.1685800	-0.2251000	1.2193400	-0.2055700	-0.3128500	1.1644400	-0.2123500	-0.3488300	0.9902100	-0.2251500	-0.2016000	1.1578500	-0.2405000	0.2744600	1.1248300	-0.2271600	0.2947600	0.9791800	-0.2339900	0.1235500
378	6.2833333	1.1253500	1.3591400	-0.0446900	1.1189000	1.3628400	0.1570600	1.0280200	1.0454900	0.2260600	1.0969200	0.7647700	0.2688800	1.1235500	1.3566700	-0.2251200	1.0668800	1.0408900	-0.3084900	1.1282200	0.7554300	-0.3416700	1.1496600	0.8082100	-0.0371500	1.1539900	0.8108200	0.0813100	1.0506600	0.3097800	0.0864400	0.9696900	-0.2031900	0.1555800	1.1460500	0.8055900	-0.1599500	1.0311700	0.3108700	-0.1568400	1.0207100	-0.1685400	-0.2251100	1.2195200	-0.2057000	-0.3129300	1.1695700	-0.2102800	-0.3455200	0.9903000	-0.2251600	-0.2016100	1.1578200	-0.2432700	0.2750100	1.1247200	-0.2272900	0.2948400	0.9789700	-0.2341600	0.1235600
379	6.3000000	1.1261200	1.3591500	-0.0441800	1.1189600	1.3628600	0.1570300	1.0276800	1.0456200	0.2262500	1.0965200	0.7643800	0.2688900	1.1234200	1.3568200	-0.2250400	1.0669600	1.0445900	-0.3084000	1.1273300	0.7585700	-0.3416400	1.1493100	0.8083200	-0.0374300	1.1535700	0.8104900	0.0814200	1.0505900	0.3097900	0.0863400	0.9693400	-0.2032400	0.1556000	1.1456600	0.8057200	-0.1597000	1.0395200	0.3163000	-0.1531000	1.0207000	-0.1685900	-0.2251100	1.2194300	-0.2056600	-0.3128800	1.1645500	-0.2124600	-0.3488500	0.9901800	-0.2251000	-0.2016100	1.1578600	-0.2432300	0.2750800	1.1250900	-0.2275800	0.2947400	0.9717900	-0.2368800	0.1277100
380	6.3166667	1.1253500	1.3591400	-0.0446800	1.1188700	1.3628300	0.1570400	1.0348800	1.0459100	0.2217600	1.0967800	0.7647100	0.2688700	1.1236100	1.3567100	-0.2250900	1.0666400	1.0442900	-0.3084800	1.1280500	0.7553800	-0.3416300	1.1495600	0.8082400	-0.0371300	1.1539400	0.8108300	0.0813300	1.0507600	0.3098600	0.0863500	0.9693400	-0.2003700	0.1549600	1.1393000	0.8046600	-0.1564100	1.0386100	0.3128400	-0.1535100	1.0203600	-0.1716900	-0.2257400	1.2195600	-0.2056400	-0.3129700	1.1631400	-0.2128200	-0.3489000	0.9819600	-0.2310500	-0.1986000	1.1657900	-0.2402100	0.2773100	1.1313200	-0.2250400	0.2906300	0.9788300	-0.2340900	0.1236000
381	6.3333333	1.1261400	1.3591100	-0.0442200	1.1189900	1.3628800	0.1570000	1.0345900	1.0460400	0.2218700	1.0964500	0.7673100	0.2687300	1.1234200	1.3567900	-0.2250700	1.0669900	1.0443700	-0.3084600	1.1278300	0.7552300	-0.3418900	1.1493100	0.8084800	-0.0373600	1.1535000	0.8169700	0.0814800	1.0506500	0.3098300	0.0862800	0.9693900	-0.2032600	0.1555600	1.1453700	0.8085600	-0.1597900	1.0394700	0.3164200	-0.1531200	1.0203300	-0.1717200	-0.2257300	1.2194300	-0.2056400	-0.3128900	1.1709100	-0.2099700	-0.3454400	0.9817600	-0.2310000	-0.1985800	1.1658400	-0.2400300	0.2774500	1.1320600	-0.2283100	0.2898900	0.9790100	-0.2340700	0.1235700
382	6.3500000	1.1253200	1.3591200	-0.0447000	1.1188300	1.3628400	0.1570300	1.0348000	1.0460100	0.2217600	1.0966900	0.7647000	0.2689600	1.1235000	1.3566600	-0.2251300	1.0666900	1.0442100	-0.3084500	1.1280700	0.7554300	-0.3416800	1.1495600	0.8082700	-0.0371300	1.1542500	0.8133600	0.0811200	1.0507000	0.3099800	0.0863500	0.9692900	-0.2003600	0.1549300	1.1390200	0.8074000	-0.1566100	1.0311900	0.3110500	-0.1568400	1.0203400	-0.1716500	-0.2257200	1.2195800	-0.2056100	-0.3129200	1.1695100	-0.2102200	-0.3454700	0.9817800	-0.2246300	-0.1985500	1.1658200	-0.2400800	0.2773700	1.1317900	-0.2279900	0.2899500	0.9789000	-0.2341000	0.1235700
383	6.3666667	1.1261400	1.3590900	-0.0442100	1.1189600	1.3628400	0.1569900	1.0341400	1.0501100	0.2220500	1.0963600	0.7673100	0.2687600	1.1234300	1.3567600	-0.2250900	1.0670000	1.0444100	-0.3084300	1.1208900	0.7543700	-0.3455200	1.1493200	0.8112400	-0.0375300	1.1535300	0.8170100	0.0814900	1.0506600	0.3099400	0.0862900	0.9690100	-0.2004000	0.1549200	1.1387800	0.8076800	-0.1562600	1.0394500	0.3164200	-0.1531200	1.0203200	-0.1717100	-0.2257200	1.2194700	-0.2056300	-0.3128600	1.1709000	-0.2099400	-0.3454300	0.9817300	-0.2310000	-0.1985600	1.1659500	-0.2400800	0.2774100	1.1321200	-0.2282200	0.2898500	0.9788800	-0.2314300	0.1229400
384	6.3833333	1.1253300	1.3591100	-0.0446900	1.1188400	1.3628700	0.1570200	1.0279600	1.0455400	0.2260600	1.0966500	0.7647500	0.2689500	1.1234900	1.3566500	-0.2251400	1.0595200	1.0438700	-0.3120600	1.1210100	0.7545500	-0.3452600	1.1494900	0.8084500	-0.0371300	1.1538600	0.8173700	0.0813600	1.0507100	0.3100900	0.0863700	0.9692600	-0.2003100	0.1548800	1.1389100	0.8076700	-0.1566000	1.0391600	0.3165100	-0.1531000	1.0203400	-0.1716600	-0.2257100	1.2195900	-0.2056100	-0.3129100	1.1695300	-0.2102100	-0.3454700	0.9818800	-0.2310200	-0.1985500	1.1661400	-0.2376600	0.2766300	1.1319800	-0.2280400	0.2898500	0.9786600	-0.2315700	0.1229600
385	6.4000000	1.1261700	1.3591000	-0.0442300	1.1189600	1.3628500	0.1569700	1.0276300	1.0456300	0.2261400	1.0963200	0.7681100	0.2692200	1.1234100	1.3567600	-0.2250900	1.0598500	1.0440800	-0.3120300	1.1210700	0.7545400	-0.3455900	1.1491800	0.8113100	-0.0376000	1.1534400	0.8170500	0.0814200	1.0503100	0.3137600	0.0868500	0.9777300	-0.1972700	0.1577700	1.1451700	0.8087400	-0.1598700	1.0394800	0.3164000	-0.1531100	1.0202700	-0.1717300	-0.2257400	1.2194800	-0.2054600	-0.3128400	1.1708400	-0.2096300	-0.3454300	0.9816800	-0.2310000	-0.1985800	1.1723400	-0.2350600	0.2727300	1.1379900	-0.2224000	0.2863400	0.9790600	-0.2340200	0.1236000
386	6.4166667	1.1252900	1.3590900	-0.0447200	1.1188400	1.3628200	0.1570000	1.0346800	1.0460100	0.2217300	1.0965700	0.7685100	0.2692500	1.1233800	1.3566200	-0.2251900	1.0594900	1.0439400	-0.3120500	1.1212900	0.7546700	-0.3453200	1.1421000	0.8140200	-0.0403100	1.1537600	0.8174200	0.0812900	1.0503800	0.3138700	0.0869200	0.9779100	-0.1971700	0.1577500	1.1454400	0.8087700	-0.1602100	1.0399400	0.3200600	-0.1526700	1.0203100	-0.1716800	-0.2257200	1.2196400	-0.2055600	-0.3129100	1.1695200	-0.2100500	-0.3454600	0.9813400	-0.2275500	-0.1992000	1.1722500	-0.2351500	0.2726300	1.1377600	-0.2221800	0.2863800	0.9717400	-0.2369100	0.1277100
387	6.4333333	1.1260800	1.3590600	-0.0442900	1.1189400	1.3628200	0.1569300	1.0344400	1.0462000	0.2218600	1.0962400	0.7682300	0.2692700	1.1233400	1.3567200	-0.2251400	1.0597700	1.0471800	-0.3120800	1.1216000	0.7578000	-0.3459000	1.1419000	0.8104800	-0.0407300	1.1537800	0.8196200	0.0811200	1.0507200	0.3100400	0.0863000	0.9691700	-0.2004100	0.1549700	1.1450900	0.8089700	-0.1599000	1.0394400	0.3230400	-0.1531300	1.0202800	-0.1716900	-0.2257200	1.2199900	-0.2023200	-0.3121900	1.1708500	-0.2096100	-0.3454300	0.9815800	-0.2246200	-0.1985500	1.1723800	-0.2350700	0.2726700	1.1379300	-0.2223500	0.2863100	0.9789900	-0.2339400	0.1236200
